<mxfile host="app.diagrams.net" modified="2024-04-05T02:03:22.283Z" agent="Mozilla/5.0 (Windows NT 10.0; Win64; x64) AppleWebKit/537.36 (KHTML, like Gecko) Chrome/121.0.0.0 Safari/537.36 OPR/107.0.0.0" version="24.2.2" etag="r6hXNTF0i1ya-Gdl7HsN" type="github">
  <diagram name="PÃ¡gina-1" id="Fk7TdpBuqT9o5CcfPJlP">
    <mxGraphModel>
      <root>
        <mxCell id="0" />
        <mxCell id="1" parent="0" />
      </root>
    </mxGraphModel>
  </diagram>
</mxfile>
